<svg width="11" height="10" viewBox="0 0 11 10" fill="none" xmlns="http://www.w3.org/2000/svg">
<mask id="mask0_6_1085" style="mask-type:alpha" maskUnits="userSpaceOnUse" x="0" y="0" width="11" height="10">
<path d="M10.8329 2.05985C10.6574 1.55985 10.3491 1.10879 9.94135 0.755453C9.53323 0.401788 9.04235 0.16067 8.5218 0.0581911C8.32567 0.0195764 8.12401 0 7.92243 0C7.33429 0 6.76227 0.166041 6.26825 0.480183C5.97085 0.669299 5.7096 0.906492 5.49439 1.18076C5.27924 0.907019 5.01817 0.670274 4.72109 0.481529C4.2273 0.167846 3.65568 0.00204061 3.06799 0.00204061C2.57829 0.00204061 2.08682 0.122796 1.64683 0.351221C1.20717 0.579478 0.825853 0.911582 0.544152 1.31163C0.255511 1.72151 0.0796901 2.18048 0.0215622 2.67578C-0.0293335 3.10955 0.00997249 3.57519 0.138413 4.05977C0.392847 5.01969 0.956012 5.89527 1.38365 6.46076C2.31346 7.69027 3.59193 8.8063 5.2921 9.87263L5.4952 10L5.69831 9.87263C7.78959 8.56101 9.24928 7.17622 10.1608 5.63911C10.685 4.7551 10.958 3.96756 10.9956 3.23149C11.0166 2.82127 10.9618 2.42707 10.8329 2.05985Z" fill="#3B3B3B"/>
</mask>
<g mask="url(#mask0_6_1085)">
<rect x="-2.60425" width="16.2262" height="1.66667" fill="#FF6250"/>
<rect x="-2.60425" y="1.66667" width="16.2262" height="1.66667" fill="#FC9C67"/>
<rect x="-2.60425" y="3.33333" width="16.2262" height="1.66667" fill="#F8D57E"/>
<rect x="-2.60425" y="5" width="16.2262" height="1.66667" fill="#009379"/>
<rect x="-2.60425" y="6.66667" width="16.2262" height="1.66667" fill="#3366FF"/>
<rect x="-2.60425" y="8.33333" width="16.2262" height="1.66667" fill="#BFAFF2"/>
</g>
</svg>
