<svg width="13" height="12" viewBox="0 0 13 12" fill="none" xmlns="http://www.w3.org/2000/svg">
<path d="M10.067 0.0908939L10.032 0.265949C9.81324 0.222213 9.58805 0.2 9.36287 0.2C8.70627 0.2 8.06792 0.38815 7.51642 0.74424C7.18414 0.958782 6.89219 1.22791 6.65163 1.53921L6.49351 1.74383L6.33522 1.53934C6.09473 1.22864 5.80297 0.960023 5.47106 0.745903C4.91981 0.390332 4.2819 0.202449 3.62581 0.202449C3.0801 0.202449 2.53123 0.339186 2.03952 0.598388C1.54815 0.85741 1.12195 1.23441 0.807436 1.68793L0.807433 1.68794C0.485066 2.15275 0.289076 2.67226 0.22416 3.2339L10.067 0.0908939ZM10.067 0.0908939L10.032 0.265949C10.6119 0.381862 11.1602 0.654932 11.6168 1.05669C12.0729 1.4581 12.4175 1.97026 12.6135 2.53717M10.067 0.0908939L12.6135 2.53717M12.6135 2.53717C12.757 2.95227 12.8187 3.39959 12.7951 3.86774C12.7528 4.70903 12.4448 5.62276 11.8355 6.66607C10.7792 8.47483 9.08107 10.1156 6.62694 11.6785L6.49433 11.7629L6.36174 11.6785C4.36719 10.4083 2.87639 9.08457 1.79562 7.63345C1.29642 6.96318 0.648293 5.93674 0.357095 4.8212C0.210649 4.26019 0.167239 3.72648 0.22416 3.2339L12.6135 2.53717Z" stroke="white" stroke-width="0.4"/>
</svg>
