<svg width="14" height="12" viewBox="0 0 14 12" fill="none" xmlns="http://www.w3.org/2000/svg">
<mask id="mask0_6_1306" style="mask-type:alpha" maskUnits="userSpaceOnUse" x="0" y="0" width="14" height="12">
<path d="M13.3025 2.47182C13.0951 1.87182 12.7307 1.33055 12.2489 0.906543C11.7665 0.482145 11.1864 0.192804 10.5712 0.0698293C10.3394 0.0234917 10.1011 0 9.86287 0C9.16779 0 8.49177 0.199249 7.90793 0.57622C7.55646 0.803158 7.24771 1.08779 6.99337 1.41692C6.73911 1.08842 6.43057 0.804329 6.07947 0.577834C5.4959 0.201415 4.82035 0.00244874 4.12581 0.00244874C3.54707 0.00244874 2.96624 0.147355 2.44626 0.421465C1.92665 0.695374 1.47601 1.0939 1.14309 1.57396C0.801968 2.06582 0.594179 2.61658 0.525483 3.21094C0.465333 3.73146 0.511786 4.29022 0.663579 4.87172C0.964273 6.02363 1.62983 7.07433 2.13522 7.75291C3.23409 9.22833 4.74501 10.5676 6.7543 11.8472L6.99433 12L7.23437 11.8472C9.70588 10.2732 11.431 8.61146 12.5082 6.76693C13.1277 5.70612 13.4504 4.76107 13.4949 3.87779C13.5196 3.38552 13.4549 2.91249 13.3025 2.47182Z" fill="#3B3B3B"/>
</mask>
<g mask="url(#mask0_6_1306)">
<rect x="-2.57764" width="19.1764" height="2" fill="#FF6250"/>
<rect x="-2.57764" y="2" width="19.1764" height="2" fill="#FC9C67"/>
<rect x="-2.57764" y="4" width="19.1764" height="2" fill="#F8D57E"/>
<rect x="-2.57764" y="6" width="19.1764" height="2" fill="#009379"/>
<rect x="-2.57764" y="8" width="19.1764" height="2" fill="#3366FF"/>
<rect x="-2.57764" y="10" width="19.1764" height="2" fill="#BFAFF2"/>
</g>
</svg>
