<svg width="14" height="12" viewBox="0 0 14 12" fill="none" xmlns="http://www.w3.org/2000/svg">
<path d="M10.567 0.0908939L10.532 0.265949C10.3132 0.222213 10.088 0.2 9.86287 0.2C9.20627 0.2 8.56792 0.38815 8.01642 0.74424C7.68414 0.958782 7.39219 1.22791 7.15163 1.53921L6.99351 1.74383L6.83522 1.53934C6.59473 1.22864 6.30297 0.960023 5.97106 0.745903C5.41981 0.390332 4.7819 0.202449 4.12581 0.202449C3.5801 0.202449 3.03123 0.339186 2.53952 0.598388C2.04815 0.85741 1.62195 1.23441 1.30744 1.68793L1.30743 1.68794C0.985066 2.15275 0.789076 2.67226 0.72416 3.2339L10.567 0.0908939ZM10.567 0.0908939L10.532 0.265949C11.1119 0.381862 11.6602 0.654932 12.1168 1.05669C12.5729 1.4581 12.9175 1.97026 13.1135 2.53717M10.567 0.0908939L13.1135 2.53717M13.1135 2.53717C13.257 2.95227 13.3187 3.39959 13.2951 3.86774C13.2528 4.70903 12.9448 5.62276 12.3355 6.66607C11.2792 8.47483 9.58107 10.1156 7.12694 11.6785L6.99433 11.7629L6.86174 11.6785C4.86719 10.4083 3.37639 9.08457 2.29562 7.63345C1.79642 6.96318 1.14829 5.93674 0.857095 4.8212C0.710649 4.26019 0.667239 3.72648 0.72416 3.2339L13.1135 2.53717Z" stroke="white" stroke-width="0.4"/>
</svg>
