<svg width="13" height="12" viewBox="0 0 13 12" fill="none" xmlns="http://www.w3.org/2000/svg">
<mask id="mask0_1_620" style="mask-type:alpha" maskUnits="userSpaceOnUse" x="0" y="0" width="13" height="12">
<path d="M12.8025 2.47182C12.5951 1.87182 12.2307 1.33055 11.7489 0.906543C11.2665 0.482145 10.6864 0.192804 10.0712 0.0698293C9.83943 0.0234917 9.6011 0 9.36287 0C8.66779 0 7.99177 0.199249 7.40793 0.57622C7.05646 0.803158 6.74771 1.08779 6.49337 1.41692C6.23911 1.08842 5.93057 0.804329 5.57947 0.577834C4.9959 0.201415 4.32035 0.00244874 3.62581 0.00244874C3.04707 0.00244874 2.46624 0.147355 1.94626 0.421465C1.42665 0.695374 0.976008 1.0939 0.643089 1.57396C0.301968 2.06582 0.0941792 2.61658 0.0254825 3.21094C-0.0346669 3.73146 0.0117857 4.29022 0.163579 4.87172C0.464273 6.02363 1.12983 7.07433 1.63522 7.75291C2.73409 9.22833 4.24501 10.5676 6.2543 11.8472L6.49433 12L6.73437 11.8472C9.20588 10.2732 10.931 8.61146 12.0082 6.76693C12.6277 5.70612 12.9504 4.76107 12.9949 3.87779C13.0196 3.38552 12.9549 2.91249 12.8025 2.47182Z" fill="#3B3B3B"/>
</mask>
<g mask="url(#mask0_1_620)">
<rect x="-3.07765" width="19.1764" height="2" fill="#FF6250"/>
<rect x="-3.07774" y="2" width="19.1764" height="2" fill="#FC9C67"/>
<rect x="-3.07773" y="4" width="19.1764" height="2" fill="#F8D57E"/>
<rect x="-3.07773" y="6" width="19.1764" height="2" fill="#009379"/>
<rect x="-3.07773" y="8" width="19.1764" height="2" fill="#3366FF"/>
<rect x="-3.07774" y="10" width="19.1764" height="2" fill="#BFAFF2"/>
</g>
</svg>
