<svg width="90" height="12" viewBox="0 0 90 12" fill="none" xmlns="http://www.w3.org/2000/svg">
<path d="M1.13761 9.00012V3.30412H1.68161L3.99361 8.56012H3.68961L5.97761 3.30412H6.52161V9.00012H5.91361V4.16812L6.16161 4.20012L4.06561 9.00012H3.60161L1.47361 4.20012L1.73761 4.16812L1.74561 9.00012H1.13761ZM9.39067 9.05612C9.03334 9.05612 8.71867 8.97346 8.44667 8.80812C8.18 8.63746 7.972 8.39746 7.82267 8.08812C7.67867 7.77346 7.60667 7.40546 7.60667 6.98412C7.60667 6.56279 7.68134 6.19479 7.83067 5.88012C7.98 5.56546 8.188 5.32012 8.45467 5.14412C8.72667 4.96812 9.03867 4.88012 9.39067 4.88012C9.75867 4.88012 10.0707 4.97079 10.3267 5.15212C10.5827 5.33346 10.756 5.59212 10.8467 5.92812L10.7507 5.99212V4.97612H11.3907V9.00012H10.7507V7.96012L10.8467 8.00812C10.756 8.34412 10.5827 8.60279 10.3267 8.78412C10.0707 8.96546 9.75867 9.05612 9.39067 9.05612ZM9.51867 8.52012C9.91334 8.52012 10.2173 8.38679 10.4307 8.12012C10.644 7.84812 10.7507 7.46412 10.7507 6.96812C10.7507 6.47212 10.6413 6.09079 10.4227 5.82412C10.2093 5.55746 9.908 5.42412 9.51867 5.42412C9.124 5.42412 8.81467 5.56279 8.59067 5.84012C8.372 6.11212 8.26267 6.49346 8.26267 6.98412C8.26267 7.47479 8.372 7.85346 8.59067 8.12012C8.81467 8.38679 9.124 8.52012 9.51867 8.52012ZM16.1875 9.00012H15.5475V7.92012L15.6435 8.00812C15.5529 8.34412 15.3795 8.60279 15.1235 8.78412C14.8675 8.96546 14.5555 9.05612 14.1875 9.05612C13.8355 9.05612 13.5235 8.97079 13.2515 8.80012C12.9849 8.62412 12.7769 8.37879 12.6275 8.06412C12.4782 7.74412 12.4035 7.37346 12.4035 6.95212C12.4035 6.53079 12.4755 6.16546 12.6195 5.85612C12.7689 5.54679 12.9769 5.30679 13.2435 5.13612C13.5155 4.96546 13.8302 4.88012 14.1875 4.88012C14.5555 4.88012 14.8675 4.97346 15.1235 5.16012C15.3795 5.34146 15.5529 5.59746 15.6435 5.92812L15.5395 6.00812V3.11212H16.1875V9.00012ZM14.3155 8.52012C14.7049 8.52012 15.0062 8.38679 15.2195 8.12012C15.4382 7.84812 15.5475 7.46412 15.5475 6.96812C15.5475 6.47746 15.4409 6.09879 15.2275 5.83212C15.0142 5.56012 14.7102 5.42412 14.3155 5.42412C13.9209 5.42412 13.6115 5.55746 13.3875 5.82412C13.1689 6.09079 13.0595 6.46679 13.0595 6.95212C13.0595 7.44812 13.1689 7.83479 13.3875 8.11212C13.6115 8.38412 13.9209 8.52012 14.3155 8.52012ZM20.7364 8.52012C20.5604 8.68546 20.3338 8.81612 20.0564 8.91212C19.7844 9.00812 19.5044 9.05612 19.2164 9.05612C18.8004 9.05612 18.4404 8.97346 18.1364 8.80812C17.8378 8.64279 17.6058 8.40546 17.4404 8.09612C17.2804 7.78146 17.2004 7.40812 17.2004 6.97612C17.2004 6.56012 17.2804 6.19479 17.4404 5.88012C17.6004 5.56546 17.8218 5.32012 18.1044 5.14412C18.3924 4.96812 18.7231 4.88012 19.0964 4.88012C19.4538 4.88012 19.7604 4.96012 20.0164 5.12012C20.2724 5.27479 20.4671 5.49879 20.6004 5.79212C20.7391 6.08546 20.8084 6.43746 20.8084 6.84812V6.96812H17.7684V6.54412H20.4404L20.2324 6.84012C20.2431 6.37079 20.1498 6.01079 19.9524 5.76012C19.7604 5.50946 19.4778 5.38412 19.1044 5.38412C18.7151 5.38412 18.4084 5.52279 18.1844 5.80012C17.9658 6.07212 17.8564 6.45079 17.8564 6.93612C17.8564 7.45879 17.9711 7.85346 18.2004 8.12012C18.4351 8.38679 18.7764 8.52012 19.2244 8.52012C19.4591 8.52012 19.6831 8.48279 19.8964 8.40812C20.1151 8.32812 20.3231 8.20812 20.5204 8.04812L20.7364 8.52012ZM24.9579 9.00012L23.4699 4.97612H24.1499L25.3899 8.52012H25.1819L26.4619 4.97612H27.0299L28.2939 8.52012H28.0859L29.3499 4.97612H29.9899L28.5019 9.00012H27.8779L26.5499 5.37612H26.9019L25.5819 9.00012H24.9579ZM30.831 9.00012V4.97612H31.479V9.00012H30.831ZM30.767 3.27212H31.559V4.00812H30.767V3.27212ZM32.1693 5.48812V4.97612H34.7533V5.48812H32.1693ZM34.7373 8.42412V8.97612C34.6466 9.00279 34.556 9.02146 34.4653 9.03212C34.38 9.04812 34.284 9.05612 34.1773 9.05612C33.804 9.05612 33.5053 8.94946 33.2813 8.73612C33.0626 8.52279 32.9533 8.20279 32.9533 7.77612V3.94412L33.6013 3.71212V7.68812C33.6013 7.90146 33.6306 8.06679 33.6893 8.18412C33.7533 8.30146 33.8386 8.38412 33.9453 8.43212C34.052 8.47479 34.172 8.49612 34.3053 8.49612C34.3853 8.49612 34.4573 8.49079 34.5213 8.48012C34.5853 8.46946 34.6573 8.45079 34.7373 8.42412ZM35.5342 9.00012V3.11212H36.1822V5.79212L36.0782 5.87212C36.1902 5.54679 36.3768 5.30146 36.6382 5.13612C36.8995 4.96546 37.2008 4.88012 37.5422 4.88012C38.5075 4.88012 38.9902 5.41079 38.9902 6.47212V9.00012H38.3422V6.50412C38.3422 6.13079 38.2675 5.85879 38.1182 5.68812C37.9688 5.51212 37.7342 5.42412 37.4142 5.42412C37.0408 5.42412 36.7422 5.53879 36.5182 5.76812C36.2942 5.99746 36.1822 6.30679 36.1822 6.69612V9.00012H35.5342ZM54.8154 9.00012V3.11212H55.4634V6.00812L55.3754 5.92812C55.4661 5.59746 55.6394 5.34146 55.8954 5.16012C56.1514 4.97346 56.4608 4.88012 56.8234 4.88012C57.1808 4.88012 57.4928 4.96546 57.7594 5.13612C58.0261 5.30679 58.2341 5.54679 58.3834 5.85612C58.5381 6.16546 58.6154 6.53079 58.6154 6.95212C58.6154 7.37346 58.5381 7.74412 58.3834 8.06412C58.2341 8.37879 58.0234 8.62412 57.7514 8.80012C57.4848 8.97079 57.1754 9.05612 56.8234 9.05612C56.4608 9.05612 56.1514 8.96546 55.8954 8.78412C55.6394 8.60279 55.4661 8.34412 55.3754 8.00812L55.4634 7.92012V9.00012H54.8154ZM56.7034 8.52012C57.0928 8.52012 57.3968 8.38412 57.6154 8.11212C57.8341 7.83479 57.9434 7.44812 57.9434 6.95212C57.9434 6.46679 57.8341 6.09079 57.6154 5.82412C57.3968 5.55746 57.0928 5.42412 56.7034 5.42412C56.3034 5.42412 55.9968 5.56012 55.7834 5.83212C55.5701 6.09879 55.4634 6.47746 55.4634 6.96812C55.4634 7.46412 55.5701 7.84812 55.7834 8.12012C55.9968 8.38679 56.3034 8.52012 56.7034 8.52012ZM59.3734 10.8161L59.2374 10.3121C59.4828 10.2535 59.6881 10.1841 59.8534 10.1041C60.0241 10.0295 60.1654 9.93079 60.2774 9.80812C60.3948 9.68546 60.4961 9.52279 60.5814 9.32012L60.8374 8.72812L60.9814 8.52812L62.4534 4.97612H63.1014L61.2214 9.36812C61.0774 9.69346 60.9148 9.95212 60.7334 10.1441C60.5521 10.3415 60.3468 10.4908 60.1174 10.5921C59.8934 10.6935 59.6454 10.7681 59.3734 10.8161ZM60.8454 9.20812L59.0374 4.97612H59.7174L61.1734 8.52812L60.8454 9.20812ZM66.1014 9.00012H65.4214L67.9254 3.30412H68.5014L71.0054 9.00012H70.3334L68.1014 3.78412H68.3414L66.1014 9.00012ZM66.4854 7.53612L66.7174 6.99212H69.7094L69.9414 7.53612H66.4854ZM71.7764 9.00012V6.10412C71.7764 5.91746 71.771 5.73079 71.7604 5.54412C71.755 5.35212 71.739 5.16279 71.7124 4.97612H72.3284L72.4004 5.80812L72.3204 5.87212C72.4324 5.54679 72.619 5.30146 72.8804 5.13612C73.1417 4.96546 73.443 4.88012 73.7844 4.88012C74.7497 4.88012 75.2324 5.41079 75.2324 6.47212V9.00012H74.5844V6.50412C74.5844 6.13079 74.5097 5.85879 74.3604 5.68812C74.211 5.51212 73.9764 5.42412 73.6564 5.42412C73.283 5.42412 72.9844 5.53879 72.7604 5.76812C72.5364 5.99746 72.4244 6.30679 72.4244 6.69612V9.00012H71.7764ZM76.456 9.00012V4.97612H77.104V9.00012H76.456ZM76.392 3.27212H77.184V4.00812H76.392V3.27212ZM78.3623 9.00012V6.10412C78.3623 5.91746 78.357 5.73079 78.3463 5.54412C78.341 5.35212 78.325 5.16279 78.2983 4.97612H78.9143L78.9863 5.80812L78.9063 5.86412C79.0023 5.54946 79.1676 5.30679 79.4023 5.13612C79.6423 4.96546 79.925 4.88012 80.2503 4.88012C80.6396 4.88012 80.941 4.97612 81.1543 5.16812C81.373 5.36012 81.5116 5.65346 81.5703 6.04812L81.3783 5.94412C81.4636 5.61879 81.6343 5.36012 81.8903 5.16812C82.1516 4.97612 82.4636 4.88012 82.8263 4.88012C83.269 4.88012 83.6023 5.01346 83.8263 5.28012C84.0503 5.54146 84.1623 5.93879 84.1623 6.47212V9.00012H83.5143V6.50412C83.5143 6.13079 83.4476 5.85879 83.3143 5.68812C83.181 5.51212 82.9703 5.42412 82.6823 5.42412C82.3463 5.42412 82.0796 5.53879 81.8823 5.76812C81.6903 5.99746 81.5943 6.30946 81.5943 6.70412V9.00012H80.9463V6.50412C80.9463 6.13079 80.877 5.85879 80.7383 5.68812C80.605 5.51212 80.3943 5.42412 80.1063 5.42412C79.765 5.42412 79.4956 5.53879 79.2983 5.76812C79.1063 5.99746 79.0103 6.30946 79.0103 6.70412V9.00012H78.3623ZM86.9375 9.05612C86.5802 9.05612 86.2655 8.97346 85.9935 8.80812C85.7269 8.63746 85.5189 8.39746 85.3695 8.08812C85.2255 7.77346 85.1535 7.40546 85.1535 6.98412C85.1535 6.56279 85.2282 6.19479 85.3775 5.88012C85.5269 5.56546 85.7349 5.32012 86.0015 5.14412C86.2735 4.96812 86.5855 4.88012 86.9375 4.88012C87.3055 4.88012 87.6175 4.97079 87.8735 5.15212C88.1295 5.33346 88.3029 5.59212 88.3935 5.92812L88.2975 5.99212V4.97612H88.9375V9.00012H88.2975V7.96012L88.3935 8.00812C88.3029 8.34412 88.1295 8.60279 87.8735 8.78412C87.6175 8.96546 87.3055 9.05612 86.9375 9.05612ZM87.0655 8.52012C87.4602 8.52012 87.7642 8.38679 87.9775 8.12012C88.1909 7.84812 88.2975 7.46412 88.2975 6.96812C88.2975 6.47212 88.1882 6.09079 87.9695 5.82412C87.7562 5.55746 87.4549 5.42412 87.0655 5.42412C86.6709 5.42412 86.3615 5.56279 86.1375 5.84012C85.9189 6.11212 85.8095 6.49346 85.8095 6.98412C85.8095 7.47479 85.9189 7.85346 86.1375 8.12012C86.3615 8.38679 86.6709 8.52012 87.0655 8.52012Z" fill="white"/>
<mask id="mask0_1_525" style="mask-type:alpha" maskUnits="userSpaceOnUse" x="41" y="1" width="11" height="11">
<path d="M51.8329 3.05997C51.6574 2.55997 51.3491 2.10891 50.9414 1.75557C50.5332 1.40191 50.0424 1.16079 49.5218 1.05831C49.3257 1.0197 49.124 1.00012 48.9224 1.00012C48.3343 1.00012 47.7623 1.16616 47.2683 1.48031C46.9709 1.66942 46.7096 1.90661 46.4944 2.18089C46.2793 1.90714 46.0182 1.6704 45.7211 1.48165C45.2273 1.16797 44.6557 1.00216 44.068 1.00216C43.5783 1.00216 43.0868 1.12292 42.6468 1.35134C42.2072 1.5796 41.8259 1.9117 41.5442 2.31175C41.2555 2.72164 41.0797 3.18061 41.0216 3.6759C40.9707 4.10967 41.01 4.57531 41.1384 5.05989C41.3929 6.01982 41.956 6.8954 42.3837 7.46088C43.3135 8.6904 44.5919 9.80642 46.2921 10.8728L46.4952 11.0001L46.6983 10.8728C48.7896 9.56113 50.2493 8.17634 51.1608 6.63923C51.685 5.75522 51.9581 4.96768 51.9957 4.23161C52.0166 3.82139 51.9618 3.4272 51.8329 3.05997Z" fill="#3B3B3B"/>
</mask>
<g mask="url(#mask0_1_525)">
<rect x="38.3959" y="1.00012" width="16.2262" height="1.66667" fill="#FF6250"/>
<rect x="38.3958" y="2.66681" width="16.2262" height="1.66667" fill="#FC9C67"/>
<rect x="38.3958" y="4.33344" width="16.2262" height="1.66667" fill="#F8D57E"/>
<rect x="38.3958" y="6.00012" width="16.2262" height="1.66667" fill="#009379"/>
<rect x="38.3958" y="7.66681" width="16.2262" height="1.66667" fill="#3366FF"/>
<rect x="38.3958" y="9.33344" width="16.2262" height="1.66667" fill="#BFAFF2"/>
</g>
</svg>
