<svg width="90" height="12" viewBox="0 0 90 12" fill="none" xmlns="http://www.w3.org/2000/svg">
<path d="M1.13759 9V3.304H1.68159L3.99359 8.56H3.68959L5.97759 3.304H6.52159V9H5.91359V4.168L6.16159 4.2L4.06559 9H3.60159L1.47359 4.2L1.73759 4.168L1.74559 9H1.13759ZM9.39066 9.056C9.03332 9.056 8.71866 8.97333 8.44666 8.808C8.17999 8.63733 7.97199 8.39733 7.82266 8.088C7.67866 7.77333 7.60666 7.40533 7.60666 6.984C7.60666 6.56267 7.68132 6.19467 7.83066 5.88C7.97999 5.56533 8.18799 5.32 8.45466 5.144C8.72666 4.968 9.03866 4.88 9.39066 4.88C9.75866 4.88 10.0707 4.97067 10.3267 5.152C10.5827 5.33333 10.756 5.592 10.8467 5.928L10.7507 5.992V4.976H11.3907V9H10.7507V7.96L10.8467 8.008C10.756 8.344 10.5827 8.60267 10.3267 8.784C10.0707 8.96533 9.75866 9.056 9.39066 9.056ZM9.51866 8.52C9.91332 8.52 10.2173 8.38667 10.4307 8.12C10.644 7.848 10.7507 7.464 10.7507 6.968C10.7507 6.472 10.6413 6.09067 10.4227 5.824C10.2093 5.55733 9.90799 5.424 9.51866 5.424C9.12399 5.424 8.81466 5.56267 8.59066 5.84C8.37199 6.112 8.26266 6.49333 8.26266 6.984C8.26266 7.47467 8.37199 7.85333 8.59066 8.12C8.81466 8.38667 9.12399 8.52 9.51866 8.52ZM16.1875 9H15.5475V7.92L15.6435 8.008C15.5529 8.344 15.3795 8.60267 15.1235 8.784C14.8675 8.96533 14.5555 9.056 14.1875 9.056C13.8355 9.056 13.5235 8.97067 13.2515 8.8C12.9849 8.624 12.7769 8.37867 12.6275 8.064C12.4782 7.744 12.4035 7.37333 12.4035 6.952C12.4035 6.53067 12.4755 6.16533 12.6195 5.856C12.7689 5.54667 12.9769 5.30667 13.2435 5.136C13.5155 4.96533 13.8302 4.88 14.1875 4.88C14.5555 4.88 14.8675 4.97333 15.1235 5.16C15.3795 5.34133 15.5529 5.59733 15.6435 5.928L15.5395 6.008V3.112H16.1875V9ZM14.3155 8.52C14.7049 8.52 15.0062 8.38667 15.2195 8.12C15.4382 7.848 15.5475 7.464 15.5475 6.968C15.5475 6.47733 15.4409 6.09867 15.2275 5.832C15.0142 5.56 14.7102 5.424 14.3155 5.424C13.9209 5.424 13.6115 5.55733 13.3875 5.824C13.1689 6.09067 13.0595 6.46667 13.0595 6.952C13.0595 7.448 13.1689 7.83467 13.3875 8.112C13.6115 8.384 13.9209 8.52 14.3155 8.52ZM20.7364 8.52C20.5604 8.68533 20.3337 8.816 20.0564 8.912C19.7844 9.008 19.5044 9.056 19.2164 9.056C18.8004 9.056 18.4404 8.97333 18.1364 8.808C17.8377 8.64267 17.6057 8.40533 17.4404 8.096C17.2804 7.78133 17.2004 7.408 17.2004 6.976C17.2004 6.56 17.2804 6.19467 17.4404 5.88C17.6004 5.56533 17.8217 5.32 18.1044 5.144C18.3924 4.968 18.7231 4.88 19.0964 4.88C19.4537 4.88 19.7604 4.96 20.0164 5.12C20.2724 5.27467 20.4671 5.49867 20.6004 5.792C20.7391 6.08533 20.8084 6.43733 20.8084 6.848V6.968H17.7684V6.544H20.4404L20.2324 6.84C20.2431 6.37067 20.1497 6.01067 19.9524 5.76C19.7604 5.50933 19.4777 5.384 19.1044 5.384C18.7151 5.384 18.4084 5.52267 18.1844 5.8C17.9657 6.072 17.8564 6.45067 17.8564 6.936C17.8564 7.45867 17.9711 7.85333 18.2004 8.12C18.4351 8.38667 18.7764 8.52 19.2244 8.52C19.4591 8.52 19.6831 8.48267 19.8964 8.408C20.1151 8.328 20.3231 8.208 20.5204 8.048L20.7364 8.52ZM24.9579 9L23.4699 4.976H24.1499L25.3899 8.52H25.1819L26.4619 4.976H27.0299L28.2939 8.52H28.0859L29.3499 4.976H29.9899L28.5019 9H27.8779L26.5499 5.376H26.9019L25.5819 9H24.9579ZM30.831 9V4.976H31.479V9H30.831ZM30.767 3.272H31.559V4.008H30.767V3.272ZM32.1693 5.488V4.976H34.7533V5.488H32.1693ZM34.7373 8.424V8.976C34.6466 9.00267 34.5559 9.02133 34.4653 9.032C34.3799 9.048 34.2839 9.056 34.1773 9.056C33.8039 9.056 33.5053 8.94933 33.2813 8.736C33.0626 8.52267 32.9533 8.20267 32.9533 7.776V3.944L33.6013 3.712V7.688C33.6013 7.90133 33.6306 8.06667 33.6893 8.184C33.7533 8.30133 33.8386 8.384 33.9453 8.432C34.0519 8.47467 34.1719 8.496 34.3053 8.496C34.3853 8.496 34.4573 8.49067 34.5213 8.48C34.5853 8.46933 34.6573 8.45067 34.7373 8.424ZM35.5342 9V3.112H36.1822V5.792L36.0782 5.872C36.1902 5.54667 36.3768 5.30133 36.6382 5.136C36.8995 4.96533 37.2008 4.88 37.5422 4.88C38.5075 4.88 38.9902 5.41067 38.9902 6.472V9H38.3422V6.504C38.3422 6.13067 38.2675 5.85867 38.1182 5.688C37.9688 5.512 37.7342 5.424 37.4142 5.424C37.0408 5.424 36.7422 5.53867 36.5182 5.768C36.2942 5.99733 36.1822 6.30667 36.1822 6.696V9H35.5342ZM54.8154 9V3.112H55.4634V6.008L55.3754 5.928C55.4661 5.59733 55.6394 5.34133 55.8954 5.16C56.1514 4.97333 56.4607 4.88 56.8234 4.88C57.1807 4.88 57.4927 4.96533 57.7594 5.136C58.0261 5.30667 58.2341 5.54667 58.3834 5.856C58.5381 6.16533 58.6154 6.53067 58.6154 6.952C58.6154 7.37333 58.5381 7.744 58.3834 8.064C58.2341 8.37867 58.0234 8.624 57.7514 8.8C57.4847 8.97067 57.1754 9.056 56.8234 9.056C56.4607 9.056 56.1514 8.96533 55.8954 8.784C55.6394 8.60267 55.4661 8.344 55.3754 8.008L55.4634 7.92V9H54.8154ZM56.7034 8.52C57.0927 8.52 57.3967 8.384 57.6154 8.112C57.8341 7.83467 57.9434 7.448 57.9434 6.952C57.9434 6.46667 57.8341 6.09067 57.6154 5.824C57.3967 5.55733 57.0927 5.424 56.7034 5.424C56.3034 5.424 55.9967 5.56 55.7834 5.832C55.5701 6.09867 55.4634 6.47733 55.4634 6.968C55.4634 7.464 55.5701 7.848 55.7834 8.12C55.9967 8.38667 56.3034 8.52 56.7034 8.52ZM59.3734 10.816L59.2374 10.312C59.4827 10.2533 59.6881 10.184 59.8534 10.104C60.0241 10.0293 60.1654 9.93067 60.2774 9.808C60.3947 9.68533 60.4961 9.52267 60.5814 9.32L60.8374 8.728L60.9814 8.528L62.4534 4.976H63.1014L61.2214 9.368C61.0774 9.69333 60.9147 9.952 60.7334 10.144C60.5521 10.3413 60.3467 10.4907 60.1174 10.592C59.8934 10.6933 59.6454 10.768 59.3734 10.816ZM60.8454 9.208L59.0374 4.976H59.7174L61.1734 8.528L60.8454 9.208ZM66.1013 9H65.4213L67.9253 3.304H68.5013L71.0053 9H70.3333L68.1013 3.784H68.3413L66.1013 9ZM66.4853 7.536L66.7173 6.992H69.7093L69.9413 7.536H66.4853ZM71.7763 9V6.104C71.7763 5.91733 71.771 5.73067 71.7603 5.544C71.755 5.352 71.739 5.16267 71.7123 4.976H72.3283L72.4003 5.808L72.3203 5.872C72.4323 5.54667 72.619 5.30133 72.8803 5.136C73.1417 4.96533 73.443 4.88 73.7843 4.88C74.7497 4.88 75.2323 5.41067 75.2323 6.472V9H74.5843V6.504C74.5843 6.13067 74.5097 5.85867 74.3603 5.688C74.211 5.512 73.9763 5.424 73.6563 5.424C73.283 5.424 72.9843 5.53867 72.7603 5.768C72.5363 5.99733 72.4243 6.30667 72.4243 6.696V9H71.7763ZM76.456 9V4.976H77.104V9H76.456ZM76.392 3.272H77.184V4.008H76.392V3.272ZM78.3623 9V6.104C78.3623 5.91733 78.3569 5.73067 78.3463 5.544C78.3409 5.352 78.3249 5.16267 78.2983 4.976H78.9143L78.9863 5.808L78.9063 5.864C79.0023 5.54933 79.1676 5.30667 79.4023 5.136C79.6423 4.96533 79.9249 4.88 80.2503 4.88C80.6396 4.88 80.9409 4.976 81.1543 5.168C81.3729 5.36 81.5116 5.65333 81.5703 6.048L81.3783 5.944C81.4636 5.61867 81.6343 5.36 81.8903 5.168C82.1516 4.976 82.4636 4.88 82.8263 4.88C83.2689 4.88 83.6023 5.01333 83.8263 5.28C84.0503 5.54133 84.1623 5.93867 84.1623 6.472V9H83.5143V6.504C83.5143 6.13067 83.4476 5.85867 83.3143 5.688C83.1809 5.512 82.9703 5.424 82.6823 5.424C82.3463 5.424 82.0796 5.53867 81.8823 5.768C81.6903 5.99733 81.5943 6.30933 81.5943 6.704V9H80.9463V6.504C80.9463 6.13067 80.8769 5.85867 80.7383 5.688C80.6049 5.512 80.3943 5.424 80.1063 5.424C79.7649 5.424 79.4956 5.53867 79.2983 5.768C79.1063 5.99733 79.0103 6.30933 79.0103 6.704V9H78.3623ZM86.9375 9.056C86.5802 9.056 86.2655 8.97333 85.9935 8.808C85.7269 8.63733 85.5189 8.39733 85.3695 8.088C85.2255 7.77333 85.1535 7.40533 85.1535 6.984C85.1535 6.56267 85.2282 6.19467 85.3775 5.88C85.5269 5.56533 85.7349 5.32 86.0015 5.144C86.2735 4.968 86.5855 4.88 86.9375 4.88C87.3055 4.88 87.6175 4.97067 87.8735 5.152C88.1295 5.33333 88.3029 5.592 88.3935 5.928L88.2975 5.992V4.976H88.9375V9H88.2975V7.96L88.3935 8.008C88.3029 8.344 88.1295 8.60267 87.8735 8.784C87.6175 8.96533 87.3055 9.056 86.9375 9.056ZM87.0655 8.52C87.4602 8.52 87.7642 8.38667 87.9775 8.12C88.1909 7.848 88.2975 7.464 88.2975 6.968C88.2975 6.472 88.1882 6.09067 87.9695 5.824C87.7562 5.55733 87.4549 5.424 87.0655 5.424C86.6709 5.424 86.3615 5.56267 86.1375 5.84C85.9189 6.112 85.8095 6.49333 85.8095 6.984C85.8095 7.47467 85.9189 7.85333 86.1375 8.12C86.3615 8.38667 86.6709 8.52 87.0655 8.52Z" fill="white"/>
<mask id="mask0_1_818" style="mask-type:alpha" maskUnits="userSpaceOnUse" x="41" y="1" width="11" height="10">
<path d="M51.8329 3.05985C51.6574 2.55985 51.3491 2.10879 50.9414 1.75545C50.5332 1.40179 50.0424 1.16067 49.5218 1.05819C49.3257 1.01958 49.124 1 48.9224 1C48.3343 1 47.7623 1.16604 47.2683 1.48018C46.9708 1.6693 46.7096 1.90649 46.4944 2.18076C46.2792 1.90702 46.0182 1.67027 45.7211 1.48153C45.2273 1.16785 44.6557 1.00204 44.068 1.00204C43.5783 1.00204 43.0868 1.1228 42.6468 1.35122C42.2072 1.57948 41.8259 1.91158 41.5442 2.31163C41.2555 2.72151 41.0797 3.18048 41.0216 3.67578C40.9707 4.10955 41.01 4.57519 41.1384 5.05977C41.3928 6.01969 41.956 6.89527 42.3836 7.46076C43.3135 8.69027 44.5919 9.8063 46.2921 10.8726L46.4952 11L46.6983 10.8726C48.7896 9.56101 50.2493 8.17622 51.1608 6.63911C51.685 5.7551 51.958 4.96756 51.9956 4.23149C52.0166 3.82127 51.9618 3.42707 51.8329 3.05985Z" fill="#3B3B3B"/>
</mask>
<g mask="url(#mask0_1_818)">
<rect x="38.3959" y="1" width="16.2262" height="1.66667" fill="#FF6250"/>
<rect x="38.3958" y="2.66667" width="16.2262" height="1.66667" fill="#FC9C67"/>
<rect x="38.3958" y="4.33333" width="16.2262" height="1.66667" fill="#F8D57E"/>
<rect x="38.3958" y="6" width="16.2262" height="1.66667" fill="#009379"/>
<rect x="38.3958" y="7.66667" width="16.2262" height="1.66667" fill="#3366FF"/>
<rect x="38.3958" y="9.33333" width="16.2262" height="1.66667" fill="#BFAFF2"/>
</g>
</svg>
