<svg width="115" height="12" viewBox="0 0 115 12" fill="none" xmlns="http://www.w3.org/2000/svg">
<path d="M1.36828 9V1.88H2.04828L4.93828 8.45H4.55828L7.41828 1.88H8.09828V9H7.33828V2.96L7.64828 3L5.02828 9H4.44828L1.78828 3L2.11828 2.96L2.12828 9H1.36828ZM11.6846 9.07C11.2379 9.07 10.8446 8.96667 10.5046 8.76C10.1713 8.54667 9.91128 8.24667 9.72461 7.86C9.54461 7.46667 9.45461 7.00667 9.45461 6.48C9.45461 5.95333 9.54794 5.49333 9.73461 5.1C9.92128 4.70667 10.1813 4.4 10.5146 4.18C10.8546 3.96 11.2446 3.85 11.6846 3.85C12.1446 3.85 12.5346 3.96333 12.8546 4.19C13.1746 4.41667 13.3913 4.74 13.5046 5.16L13.3846 5.24V3.97H14.1846V9H13.3846V7.7L13.5046 7.76C13.3913 8.18 13.1746 8.50333 12.8546 8.73C12.5346 8.95667 12.1446 9.07 11.6846 9.07ZM11.8446 8.4C12.3379 8.4 12.7179 8.23333 12.9846 7.9C13.2513 7.56 13.3846 7.08 13.3846 6.46C13.3846 5.84 13.2479 5.36333 12.9746 5.03C12.7079 4.69667 12.3313 4.53 11.8446 4.53C11.3513 4.53 10.9646 4.70333 10.6846 5.05C10.4113 5.39 10.2746 5.86667 10.2746 6.48C10.2746 7.09333 10.4113 7.56667 10.6846 7.9C10.9646 8.23333 11.3513 8.4 11.8446 8.4ZM20.1807 9H19.3807V7.65L19.5007 7.76C19.3874 8.18 19.1707 8.50333 18.8507 8.73C18.5307 8.95667 18.1407 9.07 17.6807 9.07C17.2407 9.07 16.8507 8.96333 16.5107 8.75C16.1774 8.53 15.9174 8.22333 15.7307 7.83C15.544 7.43 15.4507 6.96667 15.4507 6.44C15.4507 5.91333 15.5407 5.45667 15.7207 5.07C15.9074 4.68333 16.1674 4.38333 16.5007 4.17C16.8407 3.95667 17.234 3.85 17.6807 3.85C18.1407 3.85 18.5307 3.96667 18.8507 4.2C19.1707 4.42667 19.3874 4.74667 19.5007 5.16L19.3707 5.26V1.64H20.1807V9ZM17.8407 8.4C18.3274 8.4 18.704 8.23333 18.9707 7.9C19.244 7.56 19.3807 7.08 19.3807 6.46C19.3807 5.84667 19.2474 5.37333 18.9807 5.04C18.714 4.7 18.334 4.53 17.8407 4.53C17.3474 4.53 16.9607 4.69667 16.6807 5.03C16.4074 5.36333 16.2707 5.83333 16.2707 6.44C16.2707 7.06 16.4074 7.54333 16.6807 7.89C16.9607 8.23 17.3474 8.4 17.8407 8.4ZM25.8668 8.4C25.6468 8.60667 25.3635 8.77 25.0168 8.89C24.6768 9.01 24.3268 9.07 23.9668 9.07C23.4468 9.07 22.9968 8.96667 22.6168 8.76C22.2435 8.55333 21.9535 8.25667 21.7468 7.87C21.5468 7.47667 21.4468 7.01 21.4468 6.47C21.4468 5.95 21.5468 5.49333 21.7468 5.1C21.9468 4.70667 22.2235 4.4 22.5768 4.18C22.9368 3.96 23.3501 3.85 23.8168 3.85C24.2635 3.85 24.6468 3.95 24.9668 4.15C25.2868 4.34333 25.5301 4.62333 25.6968 4.99C25.8701 5.35667 25.9568 5.79667 25.9568 6.31V6.46H22.1568V5.93H25.4968L25.2368 6.3C25.2501 5.71333 25.1335 5.26333 24.8868 4.95C24.6468 4.63667 24.2935 4.48 23.8268 4.48C23.3401 4.48 22.9568 4.65333 22.6768 5C22.4035 5.34 22.2668 5.81333 22.2668 6.42C22.2668 7.07333 22.4101 7.56667 22.6968 7.9C22.9901 8.23333 23.4168 8.4 23.9768 8.4C24.2701 8.4 24.5501 8.35333 24.8168 8.26C25.0901 8.16 25.3501 8.01 25.5968 7.81L25.8668 8.4ZM31.1437 9L29.2837 3.97H30.1337L31.6837 8.4H31.4237L33.0237 3.97H33.7337L35.3137 8.4H35.0537L36.6337 3.97H37.4337L35.5737 9H34.7937L33.1337 4.47H33.5737L31.9237 9H31.1437ZM38.4851 9V3.97H39.2951V9H38.4851ZM38.4051 1.84H39.3951V2.76H38.4051V1.84ZM40.1579 4.61V3.97H43.3879V4.61H40.1579ZM43.3679 8.28V8.97C43.2546 9.00333 43.1412 9.02667 43.0279 9.04C42.9212 9.06 42.8012 9.07 42.6679 9.07C42.2012 9.07 41.8279 8.93667 41.5479 8.67C41.2746 8.40333 41.1379 8.00333 41.1379 7.47V2.68L41.9479 2.39V7.36C41.9479 7.62667 41.9846 7.83333 42.0579 7.98C42.1379 8.12667 42.2446 8.23 42.3779 8.29C42.5112 8.34333 42.6612 8.37 42.8279 8.37C42.9279 8.37 43.0179 8.36333 43.0979 8.35C43.1779 8.33667 43.2679 8.31333 43.3679 8.28ZM44.364 9V1.64H45.174V4.99L45.044 5.09C45.184 4.68333 45.4173 4.37667 45.744 4.17C46.0707 3.95667 46.4473 3.85 46.874 3.85C48.0807 3.85 48.684 4.51333 48.684 5.84V9H47.874V5.88C47.874 5.41333 47.7807 5.07333 47.594 4.86C47.4073 4.64 47.114 4.53 46.714 4.53C46.2473 4.53 45.874 4.67333 45.594 4.96C45.314 5.24667 45.174 5.63333 45.174 6.12V9H44.364ZM71.073 9V1.64H71.883V5.26L71.773 5.16C71.8863 4.74667 72.103 4.42667 72.423 4.2C72.743 3.96667 73.1296 3.85 73.583 3.85C74.0296 3.85 74.4196 3.95667 74.753 4.17C75.0863 4.38333 75.3463 4.68333 75.533 5.07C75.7263 5.45667 75.823 5.91333 75.823 6.44C75.823 6.96667 75.7263 7.43 75.533 7.83C75.3463 8.22333 75.083 8.53 74.743 8.75C74.4096 8.96333 74.023 9.07 73.583 9.07C73.1296 9.07 72.743 8.95667 72.423 8.73C72.103 8.50333 71.8863 8.18 71.773 7.76L71.883 7.65V9H71.073ZM73.433 8.4C73.9196 8.4 74.2996 8.23 74.573 7.89C74.8463 7.54333 74.983 7.06 74.983 6.44C74.983 5.83333 74.8463 5.36333 74.573 5.03C74.2996 4.69667 73.9196 4.53 73.433 4.53C72.933 4.53 72.5496 4.7 72.283 5.04C72.0163 5.37333 71.883 5.84667 71.883 6.46C71.883 7.08 72.0163 7.56 72.283 7.9C72.5496 8.23333 72.933 8.4 73.433 8.4ZM76.7705 11.27L76.6005 10.64C76.9071 10.5667 77.1638 10.48 77.3705 10.38C77.5838 10.2867 77.7605 10.1633 77.9005 10.01C78.0471 9.85667 78.1738 9.65333 78.2805 9.4L78.6005 8.66L78.7805 8.41L80.6205 3.97H81.4305L79.0805 9.46C78.9005 9.86667 78.6971 10.19 78.4705 10.43C78.2438 10.6767 77.9871 10.8633 77.7005 10.99C77.4205 11.1167 77.1105 11.21 76.7705 11.27ZM78.6105 9.26L76.3505 3.97H77.2005L79.0205 8.41L78.6105 9.26ZM85.1804 9H84.3304L87.4604 1.88H88.1804L91.3104 9H90.4704L87.6804 2.48H87.9804L85.1804 9ZM85.6604 7.17L85.9504 6.49H89.6904L89.9804 7.17H85.6604ZM92.2741 9V5.38C92.2741 5.14667 92.2675 4.91333 92.2541 4.68C92.2475 4.44 92.2275 4.20333 92.1941 3.97H92.9641L93.0541 5.01L92.9541 5.09C93.0941 4.68333 93.3275 4.37667 93.6541 4.17C93.9808 3.95667 94.3575 3.85 94.7841 3.85C95.9908 3.85 96.5941 4.51333 96.5941 5.84V9H95.7841V5.88C95.7841 5.41333 95.6908 5.07333 95.5041 4.86C95.3175 4.64 95.0241 4.53 94.6241 4.53C94.1575 4.53 93.7841 4.67333 93.5041 4.96C93.2241 5.24667 93.0841 5.63333 93.0841 6.12V9H92.2741ZM98.1238 9V3.97H98.9338V9H98.1238ZM98.0438 1.84H99.0338V2.76H98.0438V1.84ZM100.507 9V5.38C100.507 5.14667 100.5 4.91333 100.487 4.68C100.48 4.44 100.46 4.20333 100.427 3.97H101.197L101.287 5.01L101.187 5.08C101.307 4.68667 101.513 4.38333 101.807 4.17C102.107 3.95667 102.46 3.85 102.867 3.85C103.353 3.85 103.73 3.97 103.997 4.21C104.27 4.45 104.443 4.81667 104.517 5.31L104.277 5.18C104.383 4.77333 104.597 4.45 104.917 4.21C105.243 3.97 105.633 3.85 106.087 3.85C106.64 3.85 107.057 4.01667 107.337 4.35C107.617 4.67667 107.757 5.17333 107.757 5.84V9H106.947V5.88C106.947 5.41333 106.863 5.07333 106.697 4.86C106.53 4.64 106.267 4.53 105.907 4.53C105.487 4.53 105.153 4.67333 104.907 4.96C104.667 5.24667 104.547 5.63667 104.547 6.13V9H103.737V5.88C103.737 5.41333 103.65 5.07333 103.477 4.86C103.31 4.64 103.047 4.53 102.687 4.53C102.26 4.53 101.923 4.67333 101.677 4.96C101.437 5.24667 101.317 5.63667 101.317 6.13V9H100.507ZM111.226 9.07C110.779 9.07 110.386 8.96667 110.046 8.76C109.712 8.54667 109.452 8.24667 109.266 7.86C109.086 7.46667 108.996 7.00667 108.996 6.48C108.996 5.95333 109.089 5.49333 109.276 5.1C109.462 4.70667 109.722 4.4 110.056 4.18C110.396 3.96 110.786 3.85 111.226 3.85C111.686 3.85 112.076 3.96333 112.396 4.19C112.716 4.41667 112.932 4.74 113.046 5.16L112.926 5.24V3.97H113.726V9H112.926V7.7L113.046 7.76C112.932 8.18 112.716 8.50333 112.396 8.73C112.076 8.95667 111.686 9.07 111.226 9.07ZM111.386 8.4C111.879 8.4 112.259 8.23333 112.526 7.9C112.792 7.56 112.926 7.08 112.926 6.46C112.926 5.84 112.789 5.36333 112.516 5.03C112.249 4.69667 111.872 4.53 111.386 4.53C110.892 4.53 110.506 4.70333 110.226 5.05C109.952 5.39 109.816 5.86667 109.816 6.48C109.816 7.09333 109.952 7.56667 110.226 7.9C110.506 8.23333 110.892 8.4 111.386 8.4Z" fill="white"/>
<mask id="mask0_1_600" style="mask-type:alpha" maskUnits="userSpaceOnUse" x="53" y="0" width="13" height="12">
<path d="M65.8025 2.47182C65.5951 1.87182 65.2307 1.33055 64.7489 0.906543C64.2665 0.482145 63.6864 0.192804 63.0712 0.0698293C62.8394 0.0234917 62.6011 0 62.3629 0C61.6678 0 60.9918 0.199249 60.4079 0.57622C60.0565 0.803158 59.7477 1.08779 59.4934 1.41692C59.2391 1.08842 58.9306 0.804329 58.5795 0.577834C57.9959 0.201415 57.3204 0.00244874 56.6258 0.00244874C56.0471 0.00244874 55.4662 0.147355 54.9463 0.421465C54.4267 0.695374 53.976 1.0939 53.6431 1.57396C53.302 2.06582 53.0942 2.61658 53.0255 3.21094C52.9653 3.73146 53.0118 4.29022 53.1636 4.87172C53.4643 6.02363 54.1298 7.07433 54.6352 7.75291C55.7341 9.22833 57.245 10.5676 59.2543 11.8472L59.4943 12L59.7344 11.8472C62.2059 10.2732 63.931 8.61146 65.0082 6.76693C65.6277 5.70612 65.9504 4.76107 65.9949 3.87779C66.0196 3.38552 65.9549 2.91249 65.8025 2.47182Z" fill="#3B3B3B"/>
</mask>
<g mask="url(#mask0_1_600)">
<rect x="49.9223" width="19.1764" height="2" fill="#FF6250"/>
<rect x="49.9223" y="2" width="19.1764" height="2" fill="#FC9C67"/>
<rect x="49.9223" y="4" width="19.1764" height="2" fill="#F8D57E"/>
<rect x="49.9223" y="6" width="19.1764" height="2" fill="#009379"/>
<rect x="49.9223" y="8" width="19.1764" height="2" fill="#3366FF"/>
<rect x="49.9223" y="10" width="19.1764" height="2" fill="#BFAFF2"/>
</g>
</svg>
