<svg width="164" height="23" viewBox="0 0 164 23" fill="none" xmlns="http://www.w3.org/2000/svg">
<path d="M0.643047 12.25C0.643047 17.684 5.53105 22.442 11.381 22.442C17.387 22.442 22.171 17.71 22.171 12.25C22.171 6.79 17.491 2.058 11.381 2.058C5.32305 2.058 0.643047 6.816 0.643047 12.25ZM8.10505 12.25C8.10505 6.348 9.22305 2.63 11.433 2.63C13.669 2.63 14.761 6.322 14.761 12.25C14.761 18.178 13.617 21.87 11.433 21.87C9.27505 21.87 8.10505 18.178 8.10505 12.25ZM32.6243 20.856V22.546H32.7023C34.9383 21.922 37.5383 21.376 40.2683 21.428V21.35C39.3583 20.96 38.9943 20.076 38.9943 19.036L38.9943 7.544H38.9163C36.7843 9.39 33.8723 10.04 30.9863 10.326V10.404C32.1303 10.872 32.5203 11.73 32.5203 13.29L32.5203 19.348C32.1823 19.478 31.5843 19.608 31.2203 19.608C30.5963 19.608 30.3883 19.192 30.3883 18.646V7.544H30.3103C28.4643 9.338 25.6303 10.274 22.6663 10.326V10.404C23.6023 10.794 23.9403 11.73 23.9403 13.29V19.738C23.9403 21.324 25.0063 22.39 26.8003 22.39C28.9063 22.39 31.4543 20.83 32.6763 19.504L32.7023 19.53C32.6763 19.868 32.6243 20.414 32.6243 20.856ZM41.4913 18.334C41.4913 20.908 43.2073 22.39 45.9633 22.39C48.0953 22.39 50.0713 21.168 51.1633 19.504L51.0853 19.426C50.7213 19.738 50.1233 19.92 49.6813 19.92C48.3553 19.92 47.9133 19.062 47.9133 17.684L47.9133 8.74L50.9293 8.74V8.09L47.9133 8.09V2.552H47.8353C45.6513 5.204 43.0253 7.57 39.6713 8.662V8.74H41.4913L41.4913 18.334ZM67.0702 19.478C67.7462 20.414 67.9022 21.35 67.2262 21.896V22L77.8602 22V21.896C77.1062 21.428 76.5082 20.804 75.4682 19.478L69.6182 11.912C69.9822 11.21 70.6062 10.872 70.9182 10.872C72.5562 10.872 72.5562 14.72 75.3122 14.72C76.6382 14.72 77.7042 13.784 77.7042 12.25C77.7042 10.43 75.8842 8.974 73.7522 8.974C71.9842 8.974 70.1642 10.066 69.3322 11.522L67.6682 9.39C66.4722 7.83 64.5742 5.438 64.5742 3.826C64.5742 3.202 64.8602 2.786 65.3022 2.786C67.3042 2.786 66.5502 8.35 70.1902 8.35C71.6462 8.35 72.6082 7.258 72.6082 6.166C72.6082 4.008 69.7742 2.162 66.2902 2.162C62.2082 2.162 59.6082 4.554 59.6082 7.362C59.6082 8.61 60.0242 9.65 61.0122 11.158C58.1002 12.25 54.7202 14.252 54.7202 17.424C54.7202 20.44 57.5022 22.39 60.2582 22.39C62.5202 22.39 64.9122 21.22 66.5502 18.776L67.0702 19.478ZM61.4282 11.756L66.3942 18.568C65.8222 18.828 65.1462 18.906 64.6002 18.906C62.1562 18.906 60.5182 17.086 60.5962 14.018C60.6222 13.16 60.7782 12.302 61.1942 11.418C61.2722 11.522 61.3502 11.652 61.4282 11.756ZM82.5999 18.776C81.6379 20.726 81.0659 21.324 80.1819 21.922V22H84.7059V21.922C83.6399 21.506 82.6779 20.518 83.5099 18.724L84.4199 16.722H90.1919L91.1539 18.724C92.0119 20.492 91.0239 21.506 89.9579 21.922V22L101.138 22V21.922C100.15 21.558 99.6559 20.752 98.6159 18.698L90.5559 2.292H90.4779L82.5999 18.776ZM84.7579 15.994L87.2279 10.638L89.8279 15.994H84.7579ZM103.025 19.452C103.753 21.116 105.261 22.416 108.433 22.416C113.763 22.416 116.961 18.23 116.961 13.758C116.961 10.196 114.959 7.7 112.151 7.7C110.071 7.7 107.939 9.39 107.341 10.43L107.315 10.404C107.367 9.936 107.393 9.598 107.393 9V0.783999H107.315C105.417 2.682 102.245 3.54 99.5405 3.566V3.644C100.607 4.086 100.945 5.152 100.945 6.27V22.26H101.023L103.025 19.452ZM110.071 15.812C110.071 19.062 109.161 21.87 108.095 21.87C107.601 21.87 107.367 21.454 107.367 20.934V10.612C107.627 10.508 107.913 10.456 108.121 10.456C109.265 10.456 110.071 12.068 110.071 15.812ZM117.767 15.006C117.767 19.088 121.485 22.39 126.035 22.39C130.689 22.39 134.485 19.088 134.485 15.006C134.485 10.95 130.689 7.7 126.035 7.7C121.485 7.7 117.767 10.95 117.767 15.006ZM124.605 15.006C124.605 10.482 125.099 8.22 126.035 8.22C127.049 8.22 127.595 10.482 127.595 15.006C127.595 19.608 127.049 21.896 126.035 21.896C125.099 21.896 124.605 19.608 124.605 15.006ZM144.673 20.856V22.546H144.751C146.987 21.922 149.587 21.376 152.317 21.428V21.35C151.407 20.96 151.043 20.076 151.043 19.036V7.544H150.965C148.833 9.39 145.921 10.04 143.035 10.326V10.404C144.179 10.872 144.569 11.73 144.569 13.29V19.348C144.231 19.478 143.633 19.608 143.269 19.608C142.645 19.608 142.437 19.192 142.437 18.646V7.544H142.359C140.513 9.338 137.679 10.274 134.715 10.326V10.404C135.651 10.794 135.989 11.73 135.989 13.29V19.738C135.989 21.324 137.055 22.39 138.849 22.39C140.955 22.39 143.503 20.83 144.725 19.504L144.751 19.53C144.725 19.868 144.673 20.414 144.673 20.856ZM153.54 18.334C153.54 20.908 155.256 22.39 158.012 22.39C160.144 22.39 162.12 21.168 163.212 19.504L163.134 19.426C162.77 19.738 162.172 19.92 161.73 19.92C160.404 19.92 159.962 19.062 159.962 17.684V8.74L162.978 8.74V8.09L159.962 8.09V2.552H159.884C157.7 5.204 155.074 7.57 151.72 8.662V8.74H153.54V18.334Z" fill="#FBF9F3"/>
</svg>
