<svg width="164" height="23" viewBox="0 0 164 23" fill="none" xmlns="http://www.w3.org/2000/svg">
<path d="M0.643062 12.2501C0.643062 17.6841 5.53106 22.4421 11.3811 22.4421C17.3871 22.4421 22.1711 17.7101 22.1711 12.2501C22.1711 6.79012 17.4911 2.05812 11.3811 2.05812C5.32306 2.05812 0.643062 6.81612 0.643062 12.2501ZM8.10506 12.2501C8.10506 6.34812 9.22306 2.63012 11.4331 2.63012C13.6691 2.63012 14.7611 6.32212 14.7611 12.2501C14.7611 18.1781 13.6171 21.8701 11.4331 21.8701C9.27506 21.8701 8.10506 18.1781 8.10506 12.2501ZM32.6243 20.8561V22.5461H32.7023C34.9383 21.9221 37.5383 21.3761 40.2683 21.4281V21.3501C39.3583 20.9601 38.9943 20.0761 38.9943 19.0361L38.9943 7.54412H38.9163C36.7843 9.39012 33.8723 10.0401 30.9863 10.3261V10.4041C32.1303 10.8721 32.5203 11.7301 32.5203 13.2901L32.5203 19.3481C32.1823 19.4781 31.5843 19.6081 31.2203 19.6081C30.5963 19.6081 30.3883 19.1921 30.3883 18.6461V7.54412H30.3103C28.4643 9.33812 25.6303 10.2741 22.6663 10.3261V10.4041C23.6023 10.7941 23.9403 11.7301 23.9403 13.2901V19.7381C23.9403 21.3241 25.0063 22.3901 26.8003 22.3901C28.9063 22.3901 31.4543 20.8301 32.6763 19.5041L32.7023 19.5301C32.6763 19.8681 32.6243 20.4141 32.6243 20.8561ZM41.4913 18.3341C41.4913 20.9081 43.2073 22.3901 45.9633 22.3901C48.0953 22.3901 50.0713 21.1681 51.1633 19.5041L51.0853 19.4261C50.7213 19.7381 50.1233 19.9201 49.6813 19.9201C48.3553 19.9201 47.9133 19.0621 47.9133 17.6841L47.9133 8.74012L50.9293 8.74012V8.09012L47.9133 8.09012V2.55212H47.8353C45.6513 5.20412 43.0253 7.57012 39.6713 8.66212V8.74012H41.4913L41.4913 18.3341ZM67.0702 19.4781C67.7462 20.4141 67.9022 21.3501 67.2262 21.8961V22.0001L77.8602 22.0001V21.8961C77.1062 21.4281 76.5082 20.8041 75.4682 19.4781L69.6182 11.9121C69.9822 11.2101 70.6062 10.8721 70.9182 10.8721C72.5562 10.8721 72.5562 14.7201 75.3122 14.7201C76.6382 14.7201 77.7042 13.7841 77.7042 12.2501C77.7042 10.4301 75.8842 8.97412 73.7522 8.97412C71.9842 8.97412 70.1642 10.0661 69.3322 11.5221L67.6682 9.39012C66.4722 7.83012 64.5742 5.43812 64.5742 3.82612C64.5742 3.20212 64.8602 2.78612 65.3022 2.78612C67.3042 2.78612 66.5502 8.35012 70.1902 8.35012C71.6462 8.35012 72.6082 7.25812 72.6082 6.16612C72.6082 4.00812 69.7742 2.16212 66.2902 2.16212C62.2082 2.16212 59.6082 4.55412 59.6082 7.36212C59.6082 8.61012 60.0242 9.65012 61.0122 11.1581C58.1002 12.2501 54.7202 14.2521 54.7202 17.4241C54.7202 20.4401 57.5022 22.3901 60.2582 22.3901C62.5202 22.3901 64.9122 21.2201 66.5502 18.7761L67.0702 19.4781ZM61.4282 11.7561L66.3942 18.5681C65.8222 18.8281 65.1462 18.9061 64.6002 18.9061C62.1562 18.9061 60.5182 17.0861 60.5962 14.0181C60.6222 13.1601 60.7782 12.3021 61.1942 11.4181C61.2722 11.5221 61.3502 11.6521 61.4282 11.7561ZM82.5999 18.7761C81.6379 20.7261 81.0659 21.3241 80.1819 21.9221V22.0001H84.7059V21.9221C83.6399 21.5061 82.6779 20.5181 83.5099 18.7241L84.4199 16.7221H90.1919L91.1539 18.7241C92.0119 20.4921 91.0239 21.5061 89.9579 21.9221V22.0001L101.138 22.0001V21.9221C100.15 21.5581 99.6559 20.7521 98.6159 18.6981L90.5559 2.29212H90.4779L82.5999 18.7761ZM84.7579 15.9941L87.2279 10.6381L89.8279 15.9941H84.7579ZM103.025 19.4521C103.753 21.1161 105.261 22.4161 108.433 22.4161C113.763 22.4161 116.961 18.2301 116.961 13.7581C116.961 10.1961 114.959 7.70012 112.151 7.70012C110.071 7.70012 107.939 9.39012 107.341 10.4301L107.315 10.4041C107.367 9.93612 107.393 9.59812 107.393 9.00012V0.784121H107.315C105.417 2.68212 102.245 3.54012 99.5406 3.56612V3.64412C100.607 4.08612 100.945 5.15212 100.945 6.27012V22.2601H101.023L103.025 19.4521ZM110.071 15.8121C110.071 19.0621 109.161 21.8701 108.095 21.8701C107.601 21.8701 107.367 21.4541 107.367 20.9341V10.6121C107.627 10.5081 107.913 10.4561 108.121 10.4561C109.265 10.4561 110.071 12.0681 110.071 15.8121ZM117.767 15.0061C117.767 19.0881 121.485 22.3901 126.035 22.3901C130.689 22.3901 134.485 19.0881 134.485 15.0061C134.485 10.9501 130.689 7.70012 126.035 7.70012C121.485 7.70012 117.767 10.9501 117.767 15.0061ZM124.605 15.0061C124.605 10.4821 125.099 8.22012 126.035 8.22012C127.049 8.22012 127.595 10.4821 127.595 15.0061C127.595 19.6081 127.049 21.8961 126.035 21.8961C125.099 21.8961 124.605 19.6081 124.605 15.0061ZM144.673 20.8561V22.5461H144.751C146.987 21.9221 149.587 21.3761 152.317 21.4281V21.3501C151.407 20.9601 151.043 20.0761 151.043 19.0361V7.54412H150.965C148.833 9.39012 145.921 10.0401 143.035 10.3261V10.4041C144.179 10.8721 144.569 11.7301 144.569 13.2901V19.3481C144.231 19.4781 143.633 19.6081 143.269 19.6081C142.645 19.6081 142.437 19.1921 142.437 18.6461V7.54412H142.359C140.513 9.33812 137.679 10.2741 134.715 10.3261V10.4041C135.651 10.7941 135.989 11.7301 135.989 13.2901V19.7381C135.989 21.3241 137.055 22.3901 138.849 22.3901C140.955 22.3901 143.503 20.8301 144.725 19.5041L144.751 19.5301C144.725 19.8681 144.673 20.4141 144.673 20.8561ZM153.54 18.3341C153.54 20.9081 155.256 22.3901 158.012 22.3901C160.144 22.3901 162.12 21.1681 163.212 19.5041L163.134 19.4261C162.77 19.7381 162.172 19.9201 161.73 19.9201C160.404 19.9201 159.962 19.0621 159.962 17.6841V8.74012L162.978 8.74012V8.09012L159.962 8.09012V2.55212H159.884C157.7 5.20412 155.074 7.57012 151.72 8.66212V8.74012H153.54V18.3341Z" fill="#FBF9F3"/>
</svg>
